# File created by Blade
# Date/Time:  Thu Jan 22 16:21:49 2015
#---------------------------------------------------------
:version 1.10
:name HOM
:units
  mass 1.0
  length 1.000000
  angle deg
:documentation
     Acclaim Skeleton File
:root
   axis xyz
   order TX TY TZ RX RY RZ
   position 0.000000 0.000000 0.000000
   orientation 0 0 0
:bonedata
   begin
      id 1
      name RightUpLeg_dum
      direction -1.000000 0.000000 0.000000
      length 3.766986
      axis 0.0 0.0 0.0 xyz
   end
   begin
      id 2
      name LeftUpLeg_dum
      direction 1.000000 0.000000 0.000000
      length 3.766986
      axis 0.0 0.0 0.0 xyz
   end
   begin
      id 3
      name Spine_dum
      direction 0.000000 1.000000 0.000000
      length 7.779697
      axis 0.0 0.0 0.0 xyz
   end
   begin
      id 4
      name RightUpLeg
      direction 0.000000 -1.000000 0.000000
      length 18.017682
      axis 0.0 0.0 0.0 xyz
      dof rx ry rz
   end
   begin
      id 5
      name RightLeg
      direction 0.000000 -1.000000 0.000000
      length 16.881075
      axis 0.0 0.0 0.0 xyz
      dof rx ry rz
   end
   begin
      id 6
      name RightFoot
      direction 0.000000 -0.258819 0.965926
      length 5.770812
      axis 15.0 0.0 0.0 xyz
      dof rx ry rz
   end
   begin
      id 7
      name RightToeBase
      direction 0.000000 0.000000 1.000000
      length 2.952750
      axis 0.0 0.0 0.0 xyz
      dof rx ry rz
   end
   begin
      id 8
      name LeftUpLeg
      direction 0.000000 -1.000000 0.000000
      length 18.017682
      axis 0.0 0.0 0.0 xyz
      dof rx ry rz
   end
   begin
      id 9
      name LeftLeg
      direction 0.000000 -1.000000 0.000000
      length 16.881075
      axis 0.0 0.0 0.0 xyz
      dof rx ry rz
   end
   begin
      id 10
      name LeftFoot
      direction 0.000000 -0.258819 0.965926
      length 5.770812
      axis 15.0 0.0 0.0 xyz
      dof rx ry rz
   end
   begin
      id 11
      name LeftToeBase
      direction 0.000000 0.000000 1.000000
      length 2.952750
      axis 0.0 0.0 0.0 xyz
      dof rx ry rz
   end
   begin
      id 12
      name Spine
      direction 0.000000 1.000000 0.000000
      length 0.000000
      axis 0.0 0.0 0.0 xyz
      dof rx ry rz
   end
   begin
      id 13
      name Spine_dum1
      direction 0.000000 1.000000 0.000000
      length 10.941760
      axis 0.0 0.0 0.0 xyz
   end
   begin
      id 14
      name Spine_dum2
      direction 0.000000 1.000000 0.000000
      length 10.941760
      axis 0.0 0.0 0.0 xyz
   end
   begin
      id 15
      name Spine_dum3
      direction 0.000000 1.000000 0.000000
      length 16.646042
      axis 0.0 0.0 0.0 xyz
   end
   begin
      id 16
      name RightShoulder
      direction -1.000000 0.000000 0.000000
      length 7.708937
      axis 0.0 0.0 90.0 xyz
      dof rx ry rz
   end
   begin
      id 17
      name RightArm
      direction -1.000000 0.000000 0.000000
      length 11.521345
      axis 0.0 0.0 90.0 xyz
      dof rx ry rz
   end
   begin
      id 18
      name RightForeArm
      direction -1.000000 0.000000 0.000000
      length 10.175898
      axis 0.0 0.0 90.0 xyz
      dof ry rz rx
   end
   begin
      id 19
      name RightHand
      direction -1.000000 0.000000 0.000000
      length 0.000000
      axis 0.0 0.0 90.0 xyz
      dof rx ry rz
   end
   begin
      id 20
      name RightHand_dum1
      direction -1.000000 0.000000 0.000000
      length 3.937000
      axis 0.0 0.0 90.0 xyz
   end
   begin
      id 21
      name RightHand_dum2
      direction 0.000000 0.000000 0.000000
      length 0.000000
      axis 0.0 0.0 90.0 xyz
   end
   begin
      id 22
      name RightHandThumb1
      direction 0.000000 0.000000 1.000000
      length 3.937000
      axis 0.0 0.0 90.0 xyz
      dof rx rz ry
   end
   begin
      id 23
      name LeftShoulder
      direction 1.000000 0.000000 0.000000
      length 7.708937
      axis 0.0 0.0 -90.0 xyz
      dof rx ry rz
   end
   begin
      id 24
      name LeftArm
      direction 1.000000 0.000000 0.000000
      length 11.521345
      axis 0.0 0.0 -90.0 xyz
      dof rx ry rz
   end
   begin
      id 25
      name LeftForeArm
      direction 1.000000 0.000000 0.000000
      length 10.175898
      axis 0.0 0.0 -90.0 xyz
      dof ry rz rx
   end
   begin
      id 26
      name LeftHand
      direction 1.000000 0.000000 0.000000
      length 0.000000
      axis 0.0 0.0 -90.0 xyz
      dof rx ry rz
   end
   begin
      id 27
      name LeftHand_dum1
      direction 1.000000 0.000000 0.000000
      length 3.937000
      axis 0.0 0.0 -90.0 xyz
   end
   begin
      id 28
      name LeftHand_dum2
      direction 0.000000 0.000000 0.000000
      length 0.000000
      axis 0.0 0.0 -90.0 xyz
   end
   begin
      id 29
      name LeftHandThumb1
      direction 0.000000 0.000000 1.000000
      length 3.937000
      axis 0.0 0.0 -90.0 xyz
      dof rx rz ry
   end
   begin
      id 30
      name Head
      direction 0.000000 1.000000 0.000000
      length 4.527550
      axis 0.0 0.0 0.0 xyz
      dof rx ry rz
   end
:hierarchy
   begin
      root RightUpLeg_dum LeftUpLeg_dum Spine_dum
      RightUpLeg_dum RightUpLeg
      LeftUpLeg_dum LeftUpLeg
      Spine_dum Spine
      RightUpLeg RightLeg
      RightLeg RightFoot
      RightFoot RightToeBase
      LeftUpLeg LeftLeg
      LeftLeg LeftFoot
      LeftFoot LeftToeBase
      Spine Spine_dum1 Spine_dum2 Spine_dum3
      Spine_dum1 RightShoulder
      Spine_dum2 LeftShoulder
      Spine_dum3 Head
      RightShoulder RightArm
      RightArm RightForeArm
      RightForeArm RightHand
      RightHand RightHand_dum1 RightHand_dum2
      RightHand_dum2 RightHandThumb1
      LeftShoulder LeftArm
      LeftArm LeftForeArm
      LeftForeArm LeftHand
      LeftHand LeftHand_dum1 LeftHand_dum2
      LeftHand_dum2 LeftHandThumb1
   end

# File created by Blade
# Date/Time:  Thu Jan 22 16:21:39 2015
# Frame Rate: 120.000 fps
#------------------------------------------------------
:FULLY-SPECIFIED
:DEGREES
174
root 11.737467 37.435805 1.607688 10.272285 -10.605844 -1.050399
RightUpLeg 3.440041 -9.539529 -7.879433
RightLeg -0.315005 -0.000000 0.000000
RightFoot -15.125872 -16.697902 23.437888
RightToeBase 1.643928 -0.000000 -0.000000
LeftUpLeg -15.236087 -1.464413 0.544541
LeftLeg 13.041169 -0.000000 -0.000000
LeftFoot -10.630123 8.097908 -14.518042
LeftToeBase 7.177685 -0.000000 -0.000000
Spine 12.462635 -0.343138 -10.976189
RightShoulder -3.807290 -11.599547 -27.530072
RightArm 7.776745 35.030190 40.134263
RightForeArm 14.395037 -0.000000 21.591328
RightHand 7.679477 0.000000 -11.413867
RightHandThumb1 -24.326973 -0.000000 -32.862282
LeftShoulder -27.220762 34.189168 10.033790
LeftArm 52.011920 -46.420705 -66.422450
LeftForeArm 36.748134 0.000000 14.580079
LeftHand -21.205891 -0.000000 -0.535538
LeftHandThumb1 -26.253704 0.000000 33.147579
Head 5.642620 31.953515 -6.729108
175
root 11.837592 37.439595 1.608171 10.495394 -10.784667 -0.975441
RightUpLeg 3.973868 -9.171712 -7.536550
RightLeg 0.320783 -0.000000 -0.000000
RightFoot -15.827587 -17.616981 20.223396
RightToeBase 6.040378 -0.000000 -0.000000
LeftUpLeg -15.329472 -1.594568 0.349300
LeftLeg 12.746909 -0.000000 -0.000000
LeftFoot -10.570936 8.302705 -14.533259
LeftToeBase 7.249447 -0.000000 -0.000000
Spine 12.093957 -0.076978 -11.159013
RightShoulder -3.741799 -11.577366 -27.655270
RightArm 7.933485 35.079932 40.037962
RightForeArm 14.447703 -0.000000 21.618102
RightHand 7.905073 -0.000000 -11.789524
RightHandThumb1 -24.326973 -0.000000 -32.862282
LeftShoulder -27.352033 34.268593 9.872964
LeftArm 51.858130 -46.426679 -66.419766
LeftForeArm 36.944607 0.000000 14.640067
LeftHand -21.288151 -0.000000 -0.321528
LeftHandThumb1 -26.253704 0.000000 33.147579
Head 5.724556 31.930252 -6.727491
176
root 11.945157 37.439091 1.608617 10.710750 -11.001537 -0.830103
RightUpLeg 4.521817 -8.904123 -7.343392
RightLeg 0.879576 -0.000000 -0.000000
RightFoot -15.847490 -16.592614 22.000521
RightToeBase 3.217051 -0.000000 -0.000000
LeftUpLeg -15.440954 -1.689623 0.062531
LeftLeg 12.472415 -0.000000 -0.000000
LeftFoot -10.498941 8.509761 -14.531754
LeftToeBase 7.290497 -0.000000 -0.000000
Spine 11.710883 0.253075 -11.412295
RightShoulder -3.715255 -11.560294 -27.791246
RightArm 8.110118 35.154591 39.961638
RightForeArm 14.528139 0.000000 21.615647
RightHand 7.966411 -0.000000 -11.870061
RightHandThumb1 -24.326973 -0.000000 -32.862282
LeftShoulder -27.491097 34.384855 9.708164
LeftArm 51.795648 -46.434460 -66.474209
LeftForeArm 36.957419 -0.000000 14.723190
LeftHand -21.509661 0.000000 -0.297782
LeftHandThumb1 -26.253704 0.000000 33.147579
Head 5.761383 31.862771 -6.741379
177
root 12.049110 37.437994 1.609327 10.903502 -11.218035 -0.681986
RightUpLeg 5.077954 -8.565137 -7.095214
RightLeg 1.546763 -0.000000 -0.000000
RightFoot -16.128320 -16.184724 22.061234
RightToeBase 3.184047 -0.000000 -0.000000
LeftUpLeg -15.553905 -1.730624 -0.226370
LeftLeg 12.244134 -0.000000 -0.000000
LeftFoot -10.390486 8.639632 -14.486036
LeftToeBase 7.166107 -0.000000 -0.000000
Spine 11.362280 0.564317 -11.669676
RightShoulder -3.684852 -11.424244 -27.962540
RightArm 8.234114 35.126696 39.876126
RightForeArm 14.598894 -0.000000 21.591348
RightHand 8.068573 0.000000 -12.122481
RightHandThumb1 -24.326973 -0.000000 -32.862282
LeftShoulder -27.644777 34.454526 9.528542
LeftArm 51.745336 -46.501392 -66.576824
LeftForeArm 36.981099 -0.000000 14.769691
LeftHand -21.501898 -0.000000 -0.325458
LeftHandThumb1 -26.253704 0.000000 33.147579
Head 5.728440 31.821243 -6.833199
178
root 12.150276 37.435832 1.605578 11.115451 -11.428803 -0.550361
RightUpLeg 5.597910 -8.286031 -6.785755
RightLeg 2.272132 -0.000000 -0.000000
RightFoot -16.347495 -15.842475 21.957024
RightToeBase 2.876501 -0.000000 -0.000000
LeftUpLeg -15.719522 -1.800709 -0.481722
LeftLeg 12.081039 -0.000000 -0.000000
LeftFoot -10.345444 8.759859 -14.478882
LeftToeBase 7.302842 -0.000000 -0.000000
Spine 10.992105 0.880491 -11.906250
RightShoulder -3.655330 -11.396444 -28.119202
RightArm 8.405483 35.216932 39.805539
RightForeArm 14.736675 -0.000000 21.624565
RightHand 8.218421 0.000000 -12.222004
RightHandThumb1 -24.326973 -0.000000 -32.862282
LeftShoulder -27.819079 34.587465 9.299599
LeftArm 51.750942 -46.565208 -66.695397
LeftForeArm 37.077249 -0.000000 14.815786
LeftHand -21.550252 -0.000000 -0.223733
LeftHandThumb1 -26.253704 0.000000 33.147579
Head 5.702115 31.749820 -6.911394
179
root 12.249159 37.431212 1.602863 11.303175 -11.650376 -0.410535
RightUpLeg 6.129846 -7.955763 -6.457571
RightLeg 3.029253 -0.000000 -0.000000
RightFoot -16.595210 -15.484743 21.806663
RightToeBase 2.710786 -0.000000 -0.000000
LeftUpLeg -15.858301 -1.826178 -0.746133
LeftLeg 11.915377 -0.000000 -0.000000
LeftFoot -10.287116 8.838185 -14.456668
LeftToeBase 7.282057 -0.000000 -0.000000
Spine 10.647465 1.204504 -12.150920
RightShoulder -3.597481 -11.226551 -28.314404
RightArm 8.467212 35.260616 39.698694
RightForeArm 14.819005 -0.000000 21.612023
RightHand 8.410690 0.000000 -12.493219
RightHandThumb1 -24.326973 -0.000000 -32.862282
LeftShoulder -27.946034 34.634691 9.128284
LeftArm 51.545889 -46.564273 -66.604479
LeftForeArm 36.954749 0.000000 14.808140
LeftHand -21.567537 -0.000000 -0.076186
LeftHandThumb1 -26.253704 0.000000 33.147579
Head 5.648143 31.709091 -7.023212
180
root 12.349090 37.424980 1.598791 11.485845 -11.863912 -0.275193
RightUpLeg 6.622801 -7.719490 -6.122059
RightLeg 3.879275 -0.000000 -0.000000
RightFoot -16.654886 -14.981120 21.556824
RightToeBase 2.692883 -0.000000 -0.000000
LeftUpLeg -16.029172 -1.844635 -1.014722
LeftLeg 11.802000 -0.000000 -0.000000
LeftFoot -10.238367 8.918596 -14.436593
LeftToeBase 7.198045 -0.000000 -0.000000
Spine 10.318002 1.530116 -12.373085
RightShoulder -3.542680 -11.125798 -28.517065
RightArm 8.545002 35.388574 39.610032
RightForeArm 14.902015 -0.000000 21.666754
RightHand 8.394600 0.000000 -12.716353
RightHandThumb1 -24.326973 -0.000000 -32.862282
LeftShoulder -28.103347 34.715941 8.911386
LeftArm 51.523613 -46.621804 -66.720719
LeftForeArm 37.009511 -0.000000 14.818372
LeftHand -21.688379 -0.000000 0.042827
LeftHandThumb1 -26.253704 0.000000 33.147579
Head 5.548842 31.668292 -7.201161
181
root 12.444718 37.418800 1.593770 11.656850 -12.097564 -0.150493
RightUpLeg 7.170768 -7.239264 -5.718227
RightLeg 4.624728 -0.000000 -0.000000
RightFoot -16.659782 -14.483460 21.342754
RightToeBase 2.678061 -0.000000 -0.000000
LeftUpLeg -16.198833 -1.776163 -1.280017
LeftLeg 11.710209 -0.000000 -0.000000
LeftFoot -10.228584 8.922527 -14.517451
LeftToeBase 7.294802 -0.000000 -0.000000
Spine 9.991650 1.893874 -12.594490
RightShoulder -3.474418 -11.084347 -28.712035
RightArm 8.636717 35.652058 39.563725
RightForeArm 14.933764 -0.000000 21.725531
RightHand 8.559425 0.000000 -13.059895
RightHandThumb1 -24.326973 -0.000000 -32.862282
LeftShoulder -28.266055 34.863399 8.682686
LeftArm 51.583473 -46.700344 -66.931268
LeftForeArm 37.048605 0.000000 14.853527
LeftHand -21.696301 -0.000000 0.171809
LeftHandThumb1 -26.253704 0.000000 33.147579
Head 5.464232 31.575828 -7.379288
182
root 12.538215 37.411234 1.588198 11.790358 -12.290069 -0.023612
RightUpLeg 7.735890 -6.800356 -5.305165
RightLeg 5.417670 -0.000000 -0.000000
RightFoot -16.585084 -13.625825 21.232148
RightToeBase 2.557335 -0.000000 -0.000000
LeftUpLeg -16.348241 -1.749993 -1.531164
LeftLeg 11.655648 -0.000000 -0.000000
LeftFoot -10.200198 8.903387 -14.533314
LeftToeBase 7.289936 -0.000000 -0.000000
Spine 9.738156 2.227277 -12.798964
RightShoulder -3.405723 -10.997594 -28.938979
RightArm 8.672743 35.926615 39.517553
RightForeArm 15.015337 -0.000000 21.801084
RightHand 8.754246 0.000000 -13.197364
RightHandThumb1 -24.326973 -0.000000 -32.862282
LeftShoulder -28.441566 34.958943 8.423553
LeftArm 51.578667 -46.744301 -67.024721
LeftForeArm 37.032317 -0.000000 14.861904
LeftHand -21.732828 -0.000000 0.248824
LeftHandThumb1 -26.253704 0.000000 33.147579
Head 5.356760 31.541400 -7.565882
183
root 12.627952 37.403374 1.578854 11.946639 -12.485941 0.104010
RightUpLeg 8.308740 -6.179547 -4.833905
RightLeg 6.091512 -0.000000 -0.000000
RightFoot -16.364615 -12.499187 21.280164
RightToeBase 2.417838 -0.000000 -0.000000
LeftUpLeg -16.532054 -1.722247 -1.778719
LeftLeg 11.608997 -0.000000 -0.000000
LeftFoot -10.164280 8.851490 -14.564243
LeftToeBase 7.323645 -0.000000 -0.000000
Spine 9.459496 2.561143 -13.014006
RightShoulder -3.231063 -10.726336 -29.211619
RightArm 8.375578 36.046273 39.326742
RightForeArm 15.123558 -0.000000 21.901467
RightHand 8.872232 -0.000000 -13.414470
RightHandThumb1 -24.326973 -0.000000 -32.862282
LeftShoulder -28.591235 35.031995 8.200633
LeftArm 51.513889 -46.791263 -67.110698
LeftForeArm 37.021571 -0.000000 14.891008
LeftHand -21.845906 -0.000000 0.392133
LeftHandThumb1 -26.253704 0.000000 33.147579
Head 5.216050 31.506446 -7.778404
184
root 12.716790 37.392696 1.571085 12.090722 -12.663079 0.252067
RightUpLeg 8.902357 -5.517569 -4.347518
RightLeg 6.672106 -0.000000 -0.000000
RightFoot -15.898396 -11.042849 21.270561
RightToeBase 2.397321 -0.000000 -0.000000
LeftUpLeg -16.709822 -1.674775 -2.055587
LeftLeg 11.558499 -0.000000 -0.000000
LeftFoot -10.118111 8.863327 -14.475731
LeftToeBase 7.158666 -0.000000 -0.000000
Spine 9.180769 2.895200 -13.241428
RightShoulder -3.156063 -10.660648 -29.474868
RightArm 8.363559 36.262072 39.274676
RightForeArm 15.322511 -0.000000 21.913968
RightHand 9.099778 -0.000000 -13.663952
RightHandThumb1 -24.326973 -0.000000 -32.862282
LeftShoulder -28.766310 35.134770 7.947984
LeftArm 51.587092 -46.845853 -67.278712
LeftForeArm 37.145828 0.000000 14.865891
LeftHand -21.827427 -0.000000 0.334259
LeftHandThumb1 -26.253704 0.000000 33.147579
Head 5.093970 31.433746 -7.979412
